<svg width="411" height="196" viewBox="0 0 411 196" fill="none" xmlns="http://www.w3.org/2000/svg">
<g filter="url(#filter0_ddddd_4177_347)">
<rect x="23" y="4" width="365" height="112" rx="56" fill="#202024"/>
<g filter="url(#filter1_f_4177_347)">
<path d="M137.749 38.0471C132.416 30.2791 121.987 26.3398 106.758 26.3398H106.733C91.5265 26.3441 81.1233 30.2851 75.813 38.0531C71.3673 44.5553 70.7979 52.8453 70.7979 59.3398C70.7979 65.8344 71.3673 74.1236 75.813 80.6258C81.1233 88.393 91.5265 92.3339 106.734 92.3398H106.764C121.992 92.3398 132.417 88.4014 137.75 80.6334C142.223 74.1167 142.798 65.831 142.798 59.3407C142.798 52.8504 142.225 44.5647 137.751 38.0488H137.75L137.749 38.0471Z" fill="url(#paint0_linear_4177_347)"/>
</g>
<path d="M136.757 38.6742C131.595 31.1552 121.5 27.3418 106.759 27.3418H106.734C92.0155 27.346 81.9458 31.1603 76.8066 38.6793C72.5037 44.9732 71.9521 52.9971 71.9521 59.2835C71.9521 65.5698 72.5037 73.5928 76.8066 79.8868C81.9466 87.4049 92.0164 91.22 106.735 91.2251H106.764C121.504 91.2251 131.594 87.4125 136.756 79.8936C141.087 73.586 141.643 65.5655 141.643 59.2835C141.643 53.0014 141.088 44.9818 136.757 38.6742Z" fill="#09090A"/>
<g opacity="0.9">
<rect x="104.75" y="53.4043" width="22.5" height="22.5" rx="11.25" fill="#42A5F5"/>
<path d="M112.19 59.6387L111.836 61.4996H119.235L118.995 62.7031H111.602L111.242 64.5584H118.641L118.227 66.6812L115.244 67.6897L112.658 66.6812L112.837 65.7675H111.019L110.589 67.9961L114.863 69.6676L119.79 67.9961L120.443 64.6364L120.574 63.9623L121.412 59.6387H112.19Z" fill="white"/>
</g>
<g opacity="0.9">
<rect x="86.75" y="53.4043" width="22.5" height="22.5" rx="11.25" fill="#E44D26"/>
<g clip-path="url(#clip0_4177_347)">
<rect width="10.5" height="12" transform="translate(92.75 58.6543)" fill="white"/>
<path d="M97.9998 70.1754L101.516 69.2062L101.991 63.9743H95.7363L95.5808 62.2332H102.147L102.319 60.5264H93.6802L94.164 65.6811H100.116L99.9177 67.8939L97.9998 68.4085L96.0819 67.8939L95.9609 66.4702H94.2331L94.4836 69.2062L97.9998 70.1754V70.1754ZM91.1489 57.6875H104.851L103.615 71.5819L97.9998 73.1258L92.3843 71.5819L91.1489 57.6875V57.6875Z" fill="white"/>
<path d="M97.9998 70.1754L101.516 69.2062L101.991 63.9743H95.7363L95.5808 62.2332H102.147L102.319 60.5264H93.6802L94.164 65.6811H100.116L99.9177 67.8939L97.9998 68.4085L96.0819 67.8939L95.9609 66.4702H94.2331L94.4836 69.2062L97.9998 70.1754V70.1754ZM91.1489 57.6875H104.851L103.615 71.5819L97.9998 73.1258L92.3843 71.5819L91.1489 57.6875V57.6875Z" fill="#E44D26"/>
</g>
</g>
<g opacity="0.9">
<rect x="95.75" y="38.4043" width="22.5" height="22.5" rx="11.25" fill="#E5D130"/>
<path d="M100.99 52.3113L102.385 51.4806C102.654 51.9503 102.899 52.3475 103.487 52.3475C104.049 52.3475 104.405 52.1319 104.405 51.2879V45.5562H106.118V51.3116C106.118 53.0574 105.078 53.8522 103.56 53.8522C103.024 53.8808 102.491 53.7488 102.032 53.4737C101.573 53.1985 101.21 52.7931 100.99 52.3108L100.99 52.3113ZM107.049 52.1301L108.444 51.3353C108.6 51.6449 108.84 51.9053 109.139 52.0863C109.438 52.2673 109.783 52.3617 110.133 52.3587C110.844 52.3587 111.296 52.0094 111.296 51.5277C111.296 50.9498 110.831 50.7449 110.048 50.4063L109.621 50.2278C108.384 49.7103 107.564 49.0599 107.564 47.6872C107.564 46.4227 108.544 45.4596 110.073 45.4596C110.569 45.4243 111.064 45.5333 111.498 45.7732C111.931 46.013 112.282 46.373 112.509 46.8082L111.175 47.6514C111.087 47.4353 110.935 47.2505 110.738 47.1215C110.541 46.9925 110.309 46.9254 110.073 46.929C109.97 46.9187 109.866 46.9297 109.767 46.9613C109.669 46.9928 109.578 47.0442 109.501 47.1122C109.424 47.1802 109.362 47.2632 109.319 47.356C109.276 47.4489 109.254 47.5495 109.253 47.6514C109.253 48.1573 109.571 48.3617 110.305 48.6748L110.733 48.8555C112.19 49.4696 113.009 50.0958 113.009 51.5044C113.009 53.0216 111.798 53.8526 110.17 53.8526C108.579 53.8526 107.551 53.1061 107.049 52.1306" fill="#09090A"/>
</g>
<path d="M170.08 76V46.2H189.48V50.4H174.8V59.36H187.88V63.56H174.8V76H170.08ZM200.329 76.48C198.702 76.48 197.275 76.12 196.049 75.4C194.822 74.6533 193.862 73.6267 193.169 72.32C192.502 70.9867 192.169 69.4533 192.169 67.72V54.36H196.689V67.32C196.689 68.3067 196.889 69.1733 197.289 69.92C197.689 70.6667 198.249 71.2533 198.969 71.68C199.689 72.08 200.515 72.28 201.449 72.28C202.409 72.28 203.249 72.0667 203.969 71.64C204.689 71.2133 205.249 70.6133 205.649 69.84C206.075 69.0667 206.289 68.16 206.289 67.12V54.36H210.769V76H206.489V71.76L206.969 72.32C206.462 73.6533 205.622 74.68 204.449 75.4C203.275 76.12 201.902 76.48 200.329 76.48ZM216.046 76V45.72H220.566V76H216.046ZM225.851 76V45.72H230.371V76H225.851ZM243.656 76.48C241.442 76.48 239.496 75.9333 237.816 74.84C236.162 73.7467 235.002 72.28 234.336 70.44L237.816 68.8C238.402 70.0267 239.202 71 240.216 71.72C241.256 72.44 242.402 72.8 243.656 72.8C244.722 72.8 245.589 72.56 246.256 72.08C246.922 71.6 247.256 70.9467 247.256 70.12C247.256 69.5867 247.109 69.16 246.816 68.84C246.522 68.4933 246.149 68.2133 245.696 68C245.269 67.7867 244.829 67.6267 244.376 67.52L240.976 66.56C239.109 66.0267 237.709 65.2267 236.776 64.16C235.869 63.0667 235.416 61.8 235.416 60.36C235.416 59.0533 235.749 57.92 236.416 56.96C237.082 55.9733 238.002 55.2133 239.176 54.68C240.349 54.1467 241.669 53.88 243.136 53.88C245.109 53.88 246.869 54.3733 248.416 55.36C249.962 56.32 251.056 57.6667 251.696 59.4L248.216 61.04C247.789 60 247.109 59.1733 246.176 58.56C245.269 57.9467 244.242 57.64 243.096 57.64C242.109 57.64 241.322 57.88 240.736 58.36C240.149 58.8133 239.856 59.4133 239.856 60.16C239.856 60.6667 239.989 61.0933 240.256 61.44C240.522 61.76 240.869 62.0267 241.296 62.24C241.722 62.4267 242.162 62.5867 242.616 62.72L246.136 63.76C247.922 64.2667 249.296 65.0667 250.256 66.16C251.216 67.2267 251.696 68.5067 251.696 70C251.696 71.28 251.349 72.4133 250.656 73.4C249.989 74.36 249.056 75.12 247.856 75.68C246.656 76.2133 245.256 76.48 243.656 76.48ZM265.484 76.24C263.218 76.24 261.458 75.6 260.204 74.32C258.951 73.04 258.324 71.24 258.324 68.92V58.44H254.524V54.36H255.124C256.138 54.36 256.924 54.0667 257.484 53.48C258.044 52.8933 258.324 52.0933 258.324 51.08V49.4H262.844V54.36H267.764V58.44H262.844V68.72C262.844 69.4667 262.964 70.1067 263.204 70.64C263.444 71.1467 263.831 71.5467 264.364 71.84C264.898 72.1067 265.591 72.24 266.444 72.24C266.658 72.24 266.898 72.2267 267.164 72.2C267.431 72.1733 267.684 72.1467 267.924 72.12V76C267.551 76.0533 267.138 76.1067 266.684 76.16C266.231 76.2133 265.831 76.24 265.484 76.24ZM278.62 76.48C277.153 76.48 275.86 76.2267 274.74 75.72C273.647 75.1867 272.793 74.4667 272.18 73.56C271.567 72.6267 271.26 71.5333 271.26 70.28C271.26 69.1067 271.513 68.0533 272.02 67.12C272.553 66.1867 273.367 65.4 274.46 64.76C275.553 64.12 276.927 63.6667 278.58 63.4L286.1 62.16V65.72L279.46 66.88C278.26 67.0933 277.38 67.48 276.82 68.04C276.26 68.5733 275.98 69.2667 275.98 70.12C275.98 70.9467 276.287 71.6267 276.9 72.16C277.54 72.6667 278.353 72.92 279.34 72.92C280.567 72.92 281.633 72.6533 282.54 72.12C283.473 71.5867 284.193 70.88 284.7 70C285.207 69.0933 285.46 68.0933 285.46 67V61.44C285.46 60.3733 285.06 59.5067 284.26 58.84C283.487 58.1467 282.447 57.8 281.14 57.8C279.94 57.8 278.887 58.12 277.98 58.76C277.1 59.3733 276.447 60.1733 276.02 61.16L272.26 59.28C272.66 58.2133 273.313 57.28 274.22 56.48C275.127 55.6533 276.18 55.0133 277.38 54.56C278.607 54.1067 279.9 53.88 281.26 53.88C282.967 53.88 284.473 54.2 285.78 54.84C287.113 55.48 288.14 56.3733 288.86 57.52C289.607 58.64 289.98 59.9467 289.98 61.44V76H285.66V72.08L286.58 72.2C286.073 73.08 285.42 73.84 284.62 74.48C283.847 75.12 282.953 75.6133 281.94 75.96C280.953 76.3067 279.847 76.48 278.62 76.48ZM305.545 76.48C303.385 76.48 301.465 75.9867 299.785 75C298.132 73.9867 296.812 72.6267 295.825 70.92C294.865 69.2133 294.385 67.28 294.385 65.12C294.385 62.9867 294.865 61.0667 295.825 59.36C296.785 57.6533 298.105 56.32 299.785 55.36C301.465 54.3733 303.385 53.88 305.545 53.88C307.012 53.88 308.385 54.1467 309.665 54.68C310.945 55.1867 312.052 55.8933 312.985 56.8C313.945 57.7067 314.652 58.76 315.105 59.96L311.145 61.8C310.692 60.68 309.958 59.7867 308.945 59.12C307.958 58.4267 306.825 58.08 305.545 58.08C304.318 58.08 303.212 58.3867 302.225 59C301.265 59.5867 300.505 60.4267 299.945 61.52C299.385 62.5867 299.105 63.8 299.105 65.16C299.105 66.52 299.385 67.7467 299.945 68.84C300.505 69.9067 301.265 70.7467 302.225 71.36C303.212 71.9733 304.318 72.28 305.545 72.28C306.852 72.28 307.985 71.9467 308.945 71.28C309.932 70.5867 310.665 69.6667 311.145 68.52L315.105 70.4C314.678 71.5467 313.985 72.5867 313.025 73.52C312.092 74.4267 310.985 75.1467 309.705 75.68C308.425 76.2133 307.038 76.48 305.545 76.48ZM319.523 76V45.72H324.043V66L322.283 65.56L333.123 54.36H338.763L330.603 63.04L339.123 76H333.923L326.323 64.52L329.003 64.16L322.603 70.96L324.043 67.96V76H319.523Z" fill="#E1E1E6"/>
</g>
<defs>
<filter id="filter0_ddddd_4177_347" x="0" y="0" width="411" height="196" filterUnits="userSpaceOnUse" color-interpolation-filters="sRGB">
<feFlood flood-opacity="0" result="BackgroundImageFix"/>
<feColorMatrix in="SourceAlpha" type="matrix" values="0 0 0 0 0 0 0 0 0 0 0 0 0 0 0 0 0 0 127 0" result="hardAlpha"/>
<feOffset/>
<feColorMatrix type="matrix" values="0 0 0 0 0 0 0 0 0 0 0 0 0 0 0 0 0 0 0.15 0"/>
<feBlend mode="normal" in2="BackgroundImageFix" result="effect1_dropShadow_4177_347"/>
<feColorMatrix in="SourceAlpha" type="matrix" values="0 0 0 0 0 0 0 0 0 0 0 0 0 0 0 0 0 0 127 0" result="hardAlpha"/>
<feOffset dy="4"/>
<feGaussianBlur stdDeviation="4"/>
<feColorMatrix type="matrix" values="0 0 0 0 0 0 0 0 0 0 0 0 0 0 0 0 0 0 0.15 0"/>
<feBlend mode="normal" in2="effect1_dropShadow_4177_347" result="effect2_dropShadow_4177_347"/>
<feColorMatrix in="SourceAlpha" type="matrix" values="0 0 0 0 0 0 0 0 0 0 0 0 0 0 0 0 0 0 127 0" result="hardAlpha"/>
<feOffset dy="14"/>
<feGaussianBlur stdDeviation="7"/>
<feColorMatrix type="matrix" values="0 0 0 0 0 0 0 0 0 0 0 0 0 0 0 0 0 0 0.13 0"/>
<feBlend mode="normal" in2="effect2_dropShadow_4177_347" result="effect3_dropShadow_4177_347"/>
<feColorMatrix in="SourceAlpha" type="matrix" values="0 0 0 0 0 0 0 0 0 0 0 0 0 0 0 0 0 0 127 0" result="hardAlpha"/>
<feOffset dy="32"/>
<feGaussianBlur stdDeviation="9.5"/>
<feColorMatrix type="matrix" values="0 0 0 0 0 0 0 0 0 0 0 0 0 0 0 0 0 0 0.08 0"/>
<feBlend mode="normal" in2="effect3_dropShadow_4177_347" result="effect4_dropShadow_4177_347"/>
<feColorMatrix in="SourceAlpha" type="matrix" values="0 0 0 0 0 0 0 0 0 0 0 0 0 0 0 0 0 0 127 0" result="hardAlpha"/>
<feOffset dy="57"/>
<feGaussianBlur stdDeviation="11.5"/>
<feColorMatrix type="matrix" values="0 0 0 0 0 0 0 0 0 0 0 0 0 0 0 0 0 0 0.02 0"/>
<feBlend mode="normal" in2="effect4_dropShadow_4177_347" result="effect5_dropShadow_4177_347"/>
<feBlend mode="normal" in="SourceGraphic" in2="effect5_dropShadow_4177_347" result="shape"/>
</filter>
<filter id="filter1_f_4177_347" x="53.6957" y="9.23771" width="106.204" height="100.204" filterUnits="userSpaceOnUse" color-interpolation-filters="sRGB">
<feFlood flood-opacity="0" result="BackgroundImageFix"/>
<feBlend mode="normal" in="SourceGraphic" in2="BackgroundImageFix" result="shape"/>
<feGaussianBlur stdDeviation="8.55107" result="effect1_foregroundBlur_4177_347"/>
</filter>
<linearGradient id="paint0_linear_4177_347" x1="70.797" y1="59.339" x2="142.797" y2="59.339" gradientUnits="userSpaceOnUse">
<stop stop-color="#CE4623"/>
<stop offset="0.46875" stop-color="#CFBD2C"/>
<stop offset="1" stop-color="#3C95DD" stop-opacity="0.25"/>
</linearGradient>
<clipPath id="clip0_4177_347">
<rect width="10.5" height="12" fill="white" transform="translate(92.75 58.6543)"/>
</clipPath>
</defs>
</svg>
